<svg width="18" height="14" viewBox="0 0 18 14" fill="none" xmlns="http://www.w3.org/2000/svg"><path fill-rule="evenodd" clip-rule="evenodd" d="M17.723.407a1.18 1.18 0 01-.124 1.645L11.914 7l5.685 4.947a1.18 1.18 0 01.124 1.646 1.137 1.137 0 01-1.62.126L9.401 7.886A1.174 1.174 0 019 7c0-.34.147-.664.401-.886L16.103.281a1.137 1.137 0 011.62.126z" fill="#1199FC"/><path fill-rule="evenodd" clip-rule="evenodd" d="M8.723.407A1.18 1.18 0 018.6 2.052L2.914 7 8.6 11.947a1.18 1.18 0 01.124 1.646 1.137 1.137 0 01-1.62.126L.401 7.886A1.174 1.174 0 010 7c0-.34.147-.664.401-.886L7.103.281a1.137 1.137 0 011.62.126z" fill="#1199FC" fill-opacity=".4"/></svg>