<svg width="32" height="30" viewBox="0 0 32 30" fill="none" xmlns="http://www.w3.org/2000/svg"><path d="M13.87 1.201c.667-1.601 2.936-1.601 3.602 0l2.9 6.973a1.95 1.95 0 001.645 1.196l7.528.603c1.73.139 2.43 2.297 1.113 3.425l-5.736 4.913a1.95 1.95 0 00-.628 1.934l1.752 7.346c.403 1.688-1.433 3.021-2.913 2.117l-6.445-3.937a1.95 1.95 0 00-2.033 0l-6.446 3.937c-1.48.904-3.316-.43-2.913-2.117l1.752-7.346a1.95 1.95 0 00-.628-1.934L.684 13.398C-.633 12.27.068 10.112 1.797 9.973l7.528-.603a1.95 1.95 0 001.645-1.196l2.9-6.973z" fill="#FFD500"/></svg>