<svg width="98" height="48" viewBox="0 0 98 48" fill="none" xmlns="http://www.w3.org/2000/svg"><mask id="a" maskUnits="userSpaceOnUse" x="0" y="0" width="98" height="48" fill="#000"><path fill="#fff" d="M0 0h98v48H0z"/><path fill-rule="evenodd" clip-rule="evenodd" d="M58.512 1.001V7.43l5.474 7.38V5.604l17.212.163c1.389-.081 4.194 1.689 4.194 1.689 3.35 3.077 3.186 6.727 3.186 6.727.218 4.684-2.342 6.863-2.342 6.863-.626 1.498-5.61 2.968-5.61 2.968h-4.603L90.131 47h5.991L84.275 27.745c.926 0 3.296-1.334 3.296-1.334 6.018-3.677 6.29-9.205 6.29-9.205.927-6.7-2.015-10.513-2.015-10.513C87.407.756 80.6 1.001 80.6 1.001H58.512zM2 46.978h5.692L25.53 7.46l17.62 39.517h5.91L28.418 1.006h-5.855L2 46.978z"/></mask><path fill-rule="evenodd" clip-rule="evenodd" d="M58.512 1.001V7.43l5.474 7.38V5.604l17.212.163c1.389-.081 4.194 1.689 4.194 1.689 3.35 3.077 3.186 6.727 3.186 6.727.218 4.684-2.342 6.863-2.342 6.863-.626 1.498-5.61 2.968-5.61 2.968h-4.603L90.131 47h5.991L84.275 27.745c.926 0 3.296-1.334 3.296-1.334 6.018-3.677 6.29-9.205 6.29-9.205.927-6.7-2.015-10.513-2.015-10.513C87.407.756 80.6 1.001 80.6 1.001H58.512zM2 46.978h5.692L25.53 7.46l17.62 39.517h5.91L28.418 1.006h-5.855L2 46.978z" fill="#000"/><path d="M58.512 7.429h-1v.33l.197.265.803-.595zm0-6.428v-1h-1v1h1zm5.474 13.808l-.803.596 1.803 2.431V14.81h-1zm0-9.205l.01-1-1.01-.01v1.01h1zm17.212.163l-.01 1h.034l.035-.001-.06-.999zm4.194 1.689l.676-.736-.066-.062-.076-.048-.534.846zm3.186 6.727l-.999-.045-.002.046.002.045 1-.046zm-2.342 6.863l-.648-.762-.182.155-.093.221.923.386zm-5.61 2.968v1h.144l.139-.04-.283-.96zm-4.603 0v-1h-1.787l.935 1.523.852-.523zM90.131 47l-.853.523.293.477h.56v-1zm5.991 0v1h1.79l-.938-1.524-.852.524zM84.275 27.745v-1h-1.79l.939 1.524.851-.524zm3.296-1.334l.49.871.016-.008.015-.01-.521-.853zm6.29-9.205l-.99-.137-.006.044-.002.044.999.049zM91.847 6.693l-.8.6.004.005.005.006.791-.61zM80.6 1.001v1h.036l-.036-1zM7.692 46.978v1h.646l.265-.589-.911-.411zm-5.692 0l-.913-.409-.63 1.409H2v-1zM25.53 7.46l.914-.407-.908-2.036-.917 2.031.911.412zm17.62 39.517l-.912.407.264.593h.649v-1zm5.91 0v1h1.546l-.633-1.41-.912.41zM28.418 1.006l.912-.41-.265-.59h-.647v1zm-5.855 0v-1h-.648l-.265.592.913.408zm36.95 6.423V1h-2V7.43h2zm5.277 6.784l-5.474-7.38-1.606 1.191 5.474 7.38 1.606-1.19zm-1.803-8.609v9.205h2V5.604h-2zm18.221-.837l-17.212-.163-.019 2 17.212.163.02-2zm4.185 2.689l.533-.846-.003-.002a.803.803 0 00-.008-.005l-.027-.017a13.734 13.734 0 00-.454-.271 20.711 20.711 0 00-1.174-.63c-.46-.227-.984-.462-1.5-.636-.495-.166-1.078-.312-1.62-.28l.118 1.997c.152-.01.44.036.863.178.4.135.837.328 1.253.534a18.687 18.687 0 011.48.82l.005.003.534-.845zm3.186 6.727l1 .043v-.003-.006-.015l.001-.047V14a7.14 7.14 0 00-.032-.53 9.66 9.66 0 00-.346-1.776c-.419-1.44-1.3-3.29-3.133-4.974l-1.353 1.472c1.517 1.394 2.23 2.906 2.566 4.061.169.58.243 1.069.275 1.406a5.114 5.114 0 01.023.468v.012l1 .044zm-2.342 6.863c.648.761.649.761.65.76l.002-.002.005-.004.012-.01a2.706 2.706 0 00.143-.136 5.94 5.94 0 00.346-.373c.276-.324.63-.8.974-1.433.69-1.275 1.327-3.17 1.21-5.712l-1.999.093c.1 2.143-.435 3.68-.97 4.665-.268.496-.54.858-.737 1.09a3.949 3.949 0 01-.282.298l-.008.007h.001l.002-.002.002-.001v-.001l.65.76zm-5.61 2.968l.283.96.002-.001.003-.001.013-.004.046-.014a21.759 21.759 0 00.762-.245 28.537 28.537 0 001.848-.695c.684-.287 1.422-.636 2.044-1.025.569-.357 1.245-.87 1.532-1.557l-1.846-.772s-.008.02-.038.06c-.03.04-.077.091-.143.153a3.805 3.805 0 01-.568.421c-.49.308-1.115.608-1.754.875a26.513 26.513 0 01-2.419.872l-.038.011a.564.564 0 01-.008.003h-.002l.283.96zm-4.603 1h4.603v-2h-4.603v2zm14.96 21.463L76.876 23.49l-1.705 1.046 14.107 22.986 1.705-1.046zm5.14-.477H90.13v2h5.991v-2zm-12.7-17.73L95.27 47.523l1.704-1.048-11.847-19.255-1.703 1.048zm4.148-1.86l-.491-.87-.005.002a1.587 1.587 0 01-.088.05 21.485 21.485 0 01-1.143.582c-.339.16-.689.31-.998.42a3.918 3.918 0 01-.395.121c-.053.013-.096.02-.128.026-.033.004-.048.004-.048.004v2c.415 0 .875-.136 1.24-.266.396-.14.812-.322 1.181-.496a23.647 23.647 0 001.252-.638l.082-.045a2.785 2.785 0 00.028-.016l.002-.001h.001l-.49-.872zm6.29-9.204l-.998-.05v-.001-.002.003l-.002.03c-.003.029-.007.078-.016.144a7.231 7.231 0 01-.099.594c-.107.517-.31 1.253-.686 2.099-.75 1.684-2.198 3.817-5.01 5.535l1.042 1.706c3.206-1.958 4.904-4.428 5.795-6.427a12.4 12.4 0 00.817-2.507 9.241 9.241 0 00.15-.978 3.234 3.234 0 00.006-.085v-.007-.003c0-.002 0-.002-.998-.051zM91.847 6.693c-.791.611-.792.61-.792.61l-.001-.001-.001-.001.001.002a4.605 4.605 0 01.087.124c.066.098.163.251.281.459.235.416.547 1.046.835 1.878.575 1.66 1.054 4.13.615 7.305l1.981.274c.487-3.524-.04-6.311-.706-8.233-.332-.959-.697-1.7-.984-2.208a9.192 9.192 0 00-.472-.75 4.012 4.012 0 00-.045-.06l-.004-.006-.002-.002-.793.61zM80.6 1.001l.035 1a.018.018 0 00-.002 0h.051c.04-.001.105-.001.192.001.172.005.431.017.759.05.656.064 1.58.208 2.635.526 2.108.636 4.716 1.958 6.776 4.714l1.602-1.197c-2.378-3.182-5.395-4.706-7.8-5.431A15.953 15.953 0 0081.83.06 12.485 12.485 0 0080.67 0a4.904 4.904 0 00-.105.001h-.001l.035 1zm-22.087 1h22.087v-2H58.512v2zM7.692 45.978H2v2h5.692v-2zM24.619 7.049L6.78 46.566l1.822.823L26.442 7.872l-1.823-.823zm19.445 39.522L26.444 7.053l-1.827.814 17.62 39.517 1.827-.814zm4.997-.593h-5.91v2h5.91v-2zM27.505 1.416l20.643 45.971 1.825-.819L29.329.597l-1.824.82zm-4.943.59h5.855v-2h-5.855v2zm-19.65 45.38L23.476 1.415 21.649.598 1.087 46.57l1.826.817z" fill="#000" mask="url(#a)"/></svg>